<?xml version="1.0" encoding="utf-8"?>
<!-- Generator: Adobe Illustrator 18.0.0, SVG Export Plug-In . SVG Version: 6.00 Build 0)  -->
<!DOCTYPE svg PUBLIC "-//W3C//DTD SVG 1.0//EN" "http://www.w3.org/TR/2001/REC-SVG-20010904/DTD/svg10.dtd">
<svg version="1.0" id="Layer_1" xmlns="http://www.w3.org/2000/svg" xmlns:xlink="http://www.w3.org/1999/xlink" x="0px" y="0px"
	 viewBox="0 0 1024 1024" enable-background="new 0 0 1024 1024" xml:space="preserve">
<g display="none">
	<linearGradient id="SVGID_1_" gradientUnits="userSpaceOnUse" x1="522.7981" y1="34.0866" x2="522.7981" y2="1016.1289">
		<stop  offset="0" style="stop-color:#40566E"/>
		<stop  offset="9.582639e-04" style="stop-color:#40556E"/>
		<stop  offset="0.1362" style="stop-color:#2B4263"/>
		<stop  offset="0.2845" style="stop-color:#1C345A"/>
		<stop  offset="0.4534" style="stop-color:#122B53"/>
		<stop  offset="0.6584" style="stop-color:#0C264F"/>
		<stop  offset="1" style="stop-color:#0A254D"/>
	</linearGradient>
	<ellipse display="inline" fill="url(#SVGID_1_)" cx="522.8" cy="525.1" rx="480.4" ry="491"/>
	<linearGradient id="SVGID_2_" gradientUnits="userSpaceOnUse" x1="41.8413" y1="525.1077" x2="1003.7549" y2="525.1077">
		<stop  offset="0" style="stop-color:#8BD2F1"/>
		<stop  offset="0.16" style="stop-color:#6DB0DF"/>
		<stop  offset="0.3683" style="stop-color:#4F8AC7"/>
		<stop  offset="0.5636" style="stop-color:#3C6CB3"/>
		<stop  offset="0.74" style="stop-color:#3159A5"/>
		<stop  offset="0.8913" style="stop-color:#2C4D9C"/>
		<stop  offset="1" style="stop-color:#2B4999"/>
	</linearGradient>
	
		<ellipse display="inline" fill="none" stroke="url(#SVGID_2_)" stroke-width="1.193" stroke-miterlimit="10" cx="522.8" cy="525.1" rx="480.4" ry="491"/>
</g>
<g>
	<path fill="#FFFFF0" stroke="#FFFFF0" stroke-width="17" stroke-miterlimit="10" d="M376.4,387.5c-2-59-5.1-102.3-9.2-129.9
		c-0.8-4.9-2-9.3-3.7-13.4s-4.9-7.3-9.8-9.8c-12.2-6.5-18.3-13.8-18.3-22c0-11.4,7.1-22.2,21.3-32.3c14.2-10.2,30.7-19.3,49.5-27.4
		s38.1-14.6,58-19.5s35.2-7.3,45.8-7.3c21.2,0,45.6,2.6,73.3,7.9s53.4,12.7,77,22.4c10.6,4.9,21.1,12.5,31.7,23
		c10.6,10.5,20.1,22.1,28.7,34.7s15.5,25.6,20.7,39s7.9,25.8,7.9,37.2c0,56.9-6.9,96-20.8,117.1c-8.2,13-18.8,27.1-31.8,42.1
		S670.2,478.6,656,492c-14.2,13.4-27.7,24.6-40.3,33.5c-12.6,9-22.2,13.4-28.7,13.4c-6.5,0-14.5-1.6-23.8-4.9
		c-9.4-3.2-18.3-6.9-26.8-11c-8.5-4.1-15.9-8.5-22-13.4c-6.1-4.9-9.1-8.5-9.1-11c0-4.1,2-7.5,6.1-10.4c4.1-2.8,11.8-5.5,23.2-7.9
		c39-8.1,69.9-25.2,92.7-51.2c22.8-26,34.2-54.9,34.2-86.6c0-12.2-1.4-27-4.3-44.5c-2.8-17.5-7.9-34.4-15.2-50.6
		s-17.3-30.1-29.9-41.5c-12.6-11.4-28.2-17.1-46.9-17.1c-17.9,0-34.3,2.5-49.4,7.3c-15,4.9-30.7,12.2-46.9,22
		c-1.6,13.8-3.2,30.3-4.9,49.4s-3,39.1-4.3,59.8s-2.2,41.3-3,61.6s-1.2,38.7-1.2,54.9v322.3c0,44.8-5.1,77.7-15.4,98.9
		c-10.3,21.2-28.1,31.7-53.6,31.7c-13.6,0-20.4-6.1-20.4-18.3c0-3.2,0.6-6.9,1.8-11c1.2-4.1,2.8-9.6,4.9-16.5s3.7-16.3,4.9-28.1
		s1.8-27.5,1.8-47V594.2C379.4,515.4,378.4,446.4,376.4,387.5z"/>
</g>
<g>
</g>
<g>
</g>
<g>
</g>
<g>
</g>
<g>
</g>
<g>
</g>
<g>
</g>
<g>
</g>
</svg>
